<svg xmlns="http://www.w3.org/2000/svg" viewBox="0 0 512 512">
  <defs>
    <linearGradient id="bg" x1="0%" y1="0%" x2="100%" y2="100%">
      <stop offset="0%" style="stop-color:#3b82f6"/>
      <stop offset="100%" style="stop-color:#1d4ed8"/>
    </linearGradient>
  </defs>
  <rect width="512" height="512" rx="96" fill="url(#bg)"/>
  <rect x="60" y="120" width="180" height="120" rx="12" fill="white" opacity="0.9"/>
  <rect x="64" y="124" width="172" height="112" rx="8" fill="#1e40af"/>
  <rect x="272" y="120" width="180" height="120" rx="12" fill="white" opacity="0.9"/>
  <rect x="276" y="124" width="172" height="112" rx="8" fill="#1e40af"/>
  <rect x="60" y="272" width="180" height="120" rx="12" fill="white" opacity="0.9"/>
  <rect x="64" y="276" width="172" height="112" rx="8" fill="#1e40af"/>
  <rect x="272" y="272" width="180" height="120" rx="12" fill="white" opacity="0.9"/>
  <rect x="276" y="276" width="172" height="112" rx="8" fill="#1e40af"/>
  <path d="M240 180 L272 200 L240 220" fill="none" stroke="white" stroke-width="6" stroke-linecap="round" stroke-linejoin="round"/>
  <path d="M272 180 L240 200 L272 220" fill="none" stroke="#60a5fa" stroke-width="6" stroke-linecap="round" stroke-linejoin="round"/>
  <text x="256" y="448" text-anchor="middle" font-family="Arial, sans-serif" font-size="48" font-weight="bold" fill="white">Mac2Win</text>
</svg>
